<mxfile host="app.diagrams.net" modified="2023-11-04T11:11:21.166Z" agent="Mozilla/5.0 (Windows NT 10.0; Win64; x64) AppleWebKit/537.36 (KHTML, like Gecko) Chrome/118.0.0.0 Safari/537.36 Edg/118.0.2088.69" etag="RqPzUQxuJPOOcGW1TNAx" version="22.0.8" type="github" pages="2">
  <diagram name="Page-1" id="74b105a0-9070-1c63-61bc-23e55f88626e">
    <mxGraphModel dx="1474" dy="596" grid="1" gridSize="10" guides="1" tooltips="1" connect="1" arrows="1" fold="1" page="1" pageScale="1.5" pageWidth="1654" pageHeight="1169" background="none" math="0" shadow="0">
      <root>
        <mxCell id="0" style=";html=1;" />
        <mxCell id="1" style=";html=1;" parent="0" />
        <mxCell id="ezQpKwWz8Qu0smY6V-m6-9" style="edgeStyle=orthogonalEdgeStyle;rounded=0;orthogonalLoop=1;jettySize=auto;html=1;entryX=0;entryY=0.5;entryDx=0;entryDy=0;" parent="1" source="ezQpKwWz8Qu0smY6V-m6-4" target="ezQpKwWz8Qu0smY6V-m6-8" edge="1">
          <mxGeometry relative="1" as="geometry" />
        </mxCell>
        <mxCell id="ezQpKwWz8Qu0smY6V-m6-4" value="&lt;font style=&quot;font-size: 16px;&quot;&gt;Libraries import&lt;/font&gt;" style="rounded=0;whiteSpace=wrap;html=1;" parent="1" vertex="1">
          <mxGeometry x="100" y="100" width="160" height="40" as="geometry" />
        </mxCell>
        <mxCell id="ezQpKwWz8Qu0smY6V-m6-11" style="edgeStyle=orthogonalEdgeStyle;rounded=0;orthogonalLoop=1;jettySize=auto;html=1;entryX=0;entryY=0.5;entryDx=0;entryDy=0;" parent="1" source="ezQpKwWz8Qu0smY6V-m6-8" target="ezQpKwWz8Qu0smY6V-m6-10" edge="1">
          <mxGeometry relative="1" as="geometry" />
        </mxCell>
        <mxCell id="ezQpKwWz8Qu0smY6V-m6-8" value="&lt;font style=&quot;font-size: 16px;&quot;&gt;Dataset import&lt;/font&gt;" style="rounded=0;whiteSpace=wrap;html=1;" parent="1" vertex="1">
          <mxGeometry x="300" y="100" width="160" height="40" as="geometry" />
        </mxCell>
        <mxCell id="ezQpKwWz8Qu0smY6V-m6-13" style="edgeStyle=orthogonalEdgeStyle;rounded=0;orthogonalLoop=1;jettySize=auto;html=1;entryX=0;entryY=0.5;entryDx=0;entryDy=0;" parent="1" source="ezQpKwWz8Qu0smY6V-m6-10" target="ezQpKwWz8Qu0smY6V-m6-12" edge="1">
          <mxGeometry relative="1" as="geometry" />
        </mxCell>
        <mxCell id="ezQpKwWz8Qu0smY6V-m6-37" style="edgeStyle=orthogonalEdgeStyle;rounded=0;orthogonalLoop=1;jettySize=auto;html=1;entryX=0.5;entryY=0;entryDx=0;entryDy=0;" parent="1" source="ezQpKwWz8Qu0smY6V-m6-10" target="ezQpKwWz8Qu0smY6V-m6-20" edge="1">
          <mxGeometry relative="1" as="geometry" />
        </mxCell>
        <mxCell id="ezQpKwWz8Qu0smY6V-m6-38" style="edgeStyle=orthogonalEdgeStyle;rounded=0;orthogonalLoop=1;jettySize=auto;html=1;exitX=0.5;exitY=1;exitDx=0;exitDy=0;" parent="1" source="ezQpKwWz8Qu0smY6V-m6-10" target="ezQpKwWz8Qu0smY6V-m6-21" edge="1">
          <mxGeometry relative="1" as="geometry" />
        </mxCell>
        <mxCell id="ezQpKwWz8Qu0smY6V-m6-10" value="&lt;font style=&quot;font-size: 16px;&quot;&gt;Exploratory data analysis&lt;/font&gt;" style="rounded=0;whiteSpace=wrap;html=1;" parent="1" vertex="1">
          <mxGeometry x="530" y="100" width="160" height="40" as="geometry" />
        </mxCell>
        <mxCell id="ezQpKwWz8Qu0smY6V-m6-30" value="" style="edgeStyle=orthogonalEdgeStyle;rounded=0;orthogonalLoop=1;jettySize=auto;html=1;" parent="1" source="ezQpKwWz8Qu0smY6V-m6-12" target="ezQpKwWz8Qu0smY6V-m6-14" edge="1">
          <mxGeometry relative="1" as="geometry" />
        </mxCell>
        <mxCell id="ezQpKwWz8Qu0smY6V-m6-35" style="edgeStyle=orthogonalEdgeStyle;rounded=0;orthogonalLoop=1;jettySize=auto;html=1;exitX=0.5;exitY=1;exitDx=0;exitDy=0;" parent="1" source="ezQpKwWz8Qu0smY6V-m6-12" target="ezQpKwWz8Qu0smY6V-m6-15" edge="1">
          <mxGeometry relative="1" as="geometry" />
        </mxCell>
        <mxCell id="ezQpKwWz8Qu0smY6V-m6-55" style="edgeStyle=orthogonalEdgeStyle;rounded=0;orthogonalLoop=1;jettySize=auto;html=1;entryX=0.5;entryY=0;entryDx=0;entryDy=0;" parent="1" source="ezQpKwWz8Qu0smY6V-m6-12" target="ezQpKwWz8Qu0smY6V-m6-40" edge="1">
          <mxGeometry relative="1" as="geometry">
            <Array as="points">
              <mxPoint x="1210" y="120" />
              <mxPoint x="1210" y="310" />
              <mxPoint x="170" y="310" />
            </Array>
          </mxGeometry>
        </mxCell>
        <mxCell id="ezQpKwWz8Qu0smY6V-m6-12" value="&lt;font style=&quot;font-size: 16px;&quot;&gt;Data preprocessing&lt;/font&gt;" style="rounded=0;whiteSpace=wrap;html=1;" parent="1" vertex="1">
          <mxGeometry x="860" y="100" width="160" height="40" as="geometry" />
        </mxCell>
        <mxCell id="ezQpKwWz8Qu0smY6V-m6-14" value="&lt;font style=&quot;font-size: 16px;&quot;&gt;Fill in missing values&lt;/font&gt;" style="rounded=0;whiteSpace=wrap;html=1;" parent="1" vertex="1">
          <mxGeometry x="810" y="240" width="160" height="40" as="geometry" />
        </mxCell>
        <mxCell id="ezQpKwWz8Qu0smY6V-m6-56" style="edgeStyle=orthogonalEdgeStyle;rounded=0;orthogonalLoop=1;jettySize=auto;html=1;" parent="1" source="ezQpKwWz8Qu0smY6V-m6-15" target="ezQpKwWz8Qu0smY6V-m6-41" edge="1">
          <mxGeometry relative="1" as="geometry">
            <Array as="points">
              <mxPoint x="1100" y="400" />
              <mxPoint x="170" y="400" />
            </Array>
          </mxGeometry>
        </mxCell>
        <mxCell id="ezQpKwWz8Qu0smY6V-m6-15" value="&lt;font style=&quot;font-size: 16px;&quot;&gt;Oversample minority class of (X, Y)&lt;/font&gt;" style="rounded=0;whiteSpace=wrap;html=1;" parent="1" vertex="1">
          <mxGeometry x="1003" y="240" width="160" height="40" as="geometry" />
        </mxCell>
        <mxCell id="ezQpKwWz8Qu0smY6V-m6-19" value="&lt;span style=&quot;font-size: 16px;&quot;&gt;Reformat and sort dates&lt;/span&gt;" style="rounded=0;whiteSpace=wrap;html=1;" parent="1" vertex="1">
          <mxGeometry x="250" y="240" width="160" height="40" as="geometry" />
        </mxCell>
        <mxCell id="ezQpKwWz8Qu0smY6V-m6-20" value="&lt;span style=&quot;font-size: 16px;&quot;&gt;Check target variables&lt;/span&gt;" style="rounded=0;whiteSpace=wrap;html=1;" parent="1" vertex="1">
          <mxGeometry x="440" y="240" width="160" height="40" as="geometry" />
        </mxCell>
        <mxCell id="ezQpKwWz8Qu0smY6V-m6-21" value="&lt;span style=&quot;font-size: 16px;&quot;&gt;Check missing values&lt;/span&gt;" style="rounded=0;whiteSpace=wrap;html=1;" parent="1" vertex="1">
          <mxGeometry x="630" y="240" width="160" height="40" as="geometry" />
        </mxCell>
        <mxCell id="ezQpKwWz8Qu0smY6V-m6-39" style="edgeStyle=orthogonalEdgeStyle;rounded=0;orthogonalLoop=1;jettySize=auto;html=1;exitX=0.5;exitY=1;exitDx=0;exitDy=0;entryX=0.553;entryY=0.033;entryDx=0;entryDy=0;entryPerimeter=0;" parent="1" source="ezQpKwWz8Qu0smY6V-m6-10" target="ezQpKwWz8Qu0smY6V-m6-19" edge="1">
          <mxGeometry relative="1" as="geometry" />
        </mxCell>
        <mxCell id="ezQpKwWz8Qu0smY6V-m6-40" value="&lt;span style=&quot;font-size: 16px;&quot;&gt;Split data into (X, Y)&lt;/span&gt;" style="rounded=0;whiteSpace=wrap;html=1;" parent="1" vertex="1">
          <mxGeometry x="90" y="340" width="160" height="40" as="geometry" />
        </mxCell>
        <mxCell id="ezQpKwWz8Qu0smY6V-m6-58" style="edgeStyle=orthogonalEdgeStyle;rounded=0;orthogonalLoop=1;jettySize=auto;html=1;entryX=0;entryY=0.5;entryDx=0;entryDy=0;" parent="1" source="ezQpKwWz8Qu0smY6V-m6-41" target="ezQpKwWz8Qu0smY6V-m6-42" edge="1">
          <mxGeometry relative="1" as="geometry" />
        </mxCell>
        <mxCell id="ezQpKwWz8Qu0smY6V-m6-41" value="&lt;span style=&quot;font-size: 16px;&quot;&gt;Split oversampled data into (train,test)&lt;/span&gt;" style="rounded=0;whiteSpace=wrap;html=1;" parent="1" vertex="1">
          <mxGeometry x="90" y="420" width="160" height="40" as="geometry" />
        </mxCell>
        <mxCell id="ezQpKwWz8Qu0smY6V-m6-60" value="" style="edgeStyle=orthogonalEdgeStyle;rounded=0;orthogonalLoop=1;jettySize=auto;html=1;" parent="1" source="ezQpKwWz8Qu0smY6V-m6-42" target="ezQpKwWz8Qu0smY6V-m6-43" edge="1">
          <mxGeometry relative="1" as="geometry" />
        </mxCell>
        <mxCell id="ezQpKwWz8Qu0smY6V-m6-42" value="&lt;span style=&quot;font-size: 16px;&quot;&gt;Expand the dimention of (Xtrain, Xtest)&lt;/span&gt;" style="rounded=0;whiteSpace=wrap;html=1;" parent="1" vertex="1">
          <mxGeometry x="300" y="420" width="160" height="40" as="geometry" />
        </mxCell>
        <mxCell id="ezQpKwWz8Qu0smY6V-m6-61" value="" style="edgeStyle=orthogonalEdgeStyle;rounded=0;orthogonalLoop=1;jettySize=auto;html=1;" parent="1" source="ezQpKwWz8Qu0smY6V-m6-43" target="ezQpKwWz8Qu0smY6V-m6-44" edge="1">
          <mxGeometry relative="1" as="geometry" />
        </mxCell>
        <mxCell id="ezQpKwWz8Qu0smY6V-m6-43" value="&lt;span style=&quot;font-size: 16px;&quot;&gt;Build and train CNN (Conv1D) model&lt;/span&gt;" style="rounded=0;whiteSpace=wrap;html=1;" parent="1" vertex="1">
          <mxGeometry x="510" y="420" width="160" height="40" as="geometry" />
        </mxCell>
        <mxCell id="ezQpKwWz8Qu0smY6V-m6-62" value="" style="edgeStyle=orthogonalEdgeStyle;rounded=0;orthogonalLoop=1;jettySize=auto;html=1;" parent="1" source="ezQpKwWz8Qu0smY6V-m6-44" target="ezQpKwWz8Qu0smY6V-m6-45" edge="1">
          <mxGeometry relative="1" as="geometry" />
        </mxCell>
        <mxCell id="ezQpKwWz8Qu0smY6V-m6-44" value="&lt;span style=&quot;font-size: 16px;&quot;&gt;Make prediction and evaluation&lt;/span&gt;" style="rounded=0;whiteSpace=wrap;html=1;" parent="1" vertex="1">
          <mxGeometry x="720" y="420" width="160" height="40" as="geometry" />
        </mxCell>
        <mxCell id="ezQpKwWz8Qu0smY6V-m6-63" style="edgeStyle=orthogonalEdgeStyle;rounded=0;orthogonalLoop=1;jettySize=auto;html=1;entryX=0.5;entryY=0;entryDx=0;entryDy=0;exitX=0.5;exitY=1;exitDx=0;exitDy=0;" parent="1" source="ezQpKwWz8Qu0smY6V-m6-46" target="ezQpKwWz8Qu0smY6V-m6-47" edge="1">
          <mxGeometry relative="1" as="geometry">
            <Array as="points">
              <mxPoint x="1245" y="490" />
              <mxPoint x="170" y="490" />
            </Array>
          </mxGeometry>
        </mxCell>
        <mxCell id="ezQpKwWz8Qu0smY6V-m6-68" value="" style="edgeStyle=orthogonalEdgeStyle;rounded=0;orthogonalLoop=1;jettySize=auto;html=1;" parent="1" source="ezQpKwWz8Qu0smY6V-m6-45" target="ezQpKwWz8Qu0smY6V-m6-46" edge="1">
          <mxGeometry relative="1" as="geometry" />
        </mxCell>
        <mxCell id="ezQpKwWz8Qu0smY6V-m6-45" value="&lt;span style=&quot;font-size: 16px;&quot;&gt;Feature extraction from CNN layers for RF model training&lt;/span&gt;" style="rounded=0;whiteSpace=wrap;html=1;" parent="1" vertex="1">
          <mxGeometry x="920" y="420" width="210" height="40" as="geometry" />
        </mxCell>
        <mxCell id="ezQpKwWz8Qu0smY6V-m6-46" value="&lt;span style=&quot;font-size: 16px;&quot;&gt;Instantiate and train RF model&lt;/span&gt;" style="rounded=0;whiteSpace=wrap;html=1;" parent="1" vertex="1">
          <mxGeometry x="1170" y="420" width="150" height="40" as="geometry" />
        </mxCell>
        <mxCell id="ezQpKwWz8Qu0smY6V-m6-64" value="" style="edgeStyle=orthogonalEdgeStyle;rounded=0;orthogonalLoop=1;jettySize=auto;html=1;" parent="1" source="ezQpKwWz8Qu0smY6V-m6-47" target="ezQpKwWz8Qu0smY6V-m6-48" edge="1">
          <mxGeometry relative="1" as="geometry" />
        </mxCell>
        <mxCell id="ezQpKwWz8Qu0smY6V-m6-47" value="&lt;span style=&quot;font-size: 16px;&quot;&gt;Make prediction and evaluation&lt;/span&gt;" style="rounded=0;whiteSpace=wrap;html=1;" parent="1" vertex="1">
          <mxGeometry x="90" y="520" width="160" height="40" as="geometry" />
        </mxCell>
        <mxCell id="ezQpKwWz8Qu0smY6V-m6-65" value="" style="edgeStyle=orthogonalEdgeStyle;rounded=0;orthogonalLoop=1;jettySize=auto;html=1;" parent="1" source="ezQpKwWz8Qu0smY6V-m6-48" target="ezQpKwWz8Qu0smY6V-m6-49" edge="1">
          <mxGeometry relative="1" as="geometry" />
        </mxCell>
        <mxCell id="ezQpKwWz8Qu0smY6V-m6-48" value="&lt;span style=&quot;font-size: 16px;&quot;&gt;Infuse CNN prediction into RF as input&lt;/span&gt;" style="rounded=0;whiteSpace=wrap;html=1;" parent="1" vertex="1">
          <mxGeometry x="300" y="520" width="160" height="40" as="geometry" />
        </mxCell>
        <mxCell id="ezQpKwWz8Qu0smY6V-m6-66" value="" style="edgeStyle=orthogonalEdgeStyle;rounded=0;orthogonalLoop=1;jettySize=auto;html=1;" parent="1" source="ezQpKwWz8Qu0smY6V-m6-49" target="ezQpKwWz8Qu0smY6V-m6-50" edge="1">
          <mxGeometry relative="1" as="geometry" />
        </mxCell>
        <mxCell id="ezQpKwWz8Qu0smY6V-m6-49" value="&lt;span style=&quot;font-size: 16px;&quot;&gt;Evaluate hybrid CNN-RF model&lt;/span&gt;" style="rounded=0;whiteSpace=wrap;html=1;" parent="1" vertex="1">
          <mxGeometry x="500" y="520" width="160" height="40" as="geometry" />
        </mxCell>
        <mxCell id="ezQpKwWz8Qu0smY6V-m6-50" value="&lt;span style=&quot;font-size: 16px;&quot;&gt;Save model for deployment&lt;/span&gt;" style="rounded=0;whiteSpace=wrap;html=1;" parent="1" vertex="1">
          <mxGeometry x="720" y="520" width="160" height="40" as="geometry" />
        </mxCell>
        <mxCell id="ezQpKwWz8Qu0smY6V-m6-54" style="edgeStyle=orthogonalEdgeStyle;rounded=0;orthogonalLoop=1;jettySize=auto;html=1;entryX=0.356;entryY=1;entryDx=0;entryDy=0;entryPerimeter=0;" parent="1" source="ezQpKwWz8Qu0smY6V-m6-40" target="ezQpKwWz8Qu0smY6V-m6-15" edge="1">
          <mxGeometry relative="1" as="geometry" />
        </mxCell>
      </root>
    </mxGraphModel>
  </diagram>
  <diagram id="duwe8utRjX5pr_nPRdWv" name="Page-2">
    <mxGraphModel dx="668" dy="587" grid="1" gridSize="10" guides="1" tooltips="1" connect="1" arrows="1" fold="1" page="1" pageScale="1" pageWidth="1654" pageHeight="1169" math="0" shadow="0">
      <root>
        <mxCell id="0" />
        <mxCell id="1" parent="0" />
        <mxCell id="RWdVaoSDPrCecyL-yo3--31" value="" style="edgeStyle=orthogonalEdgeStyle;rounded=0;orthogonalLoop=1;jettySize=auto;html=1;arcSize=17;shadow=0;strokeWidth=2;labelBackgroundColor=none;strokeColor=#23445D;fontColor=default;" parent="1" source="RWdVaoSDPrCecyL-yo3--1" target="RWdVaoSDPrCecyL-yo3--2" edge="1">
          <mxGeometry relative="1" as="geometry" />
        </mxCell>
        <mxCell id="RWdVaoSDPrCecyL-yo3--1" value="&lt;font style=&quot;font-size: 16px;&quot;&gt;&lt;br&gt;&lt;br&gt;Libraries import&lt;/font&gt;" style="rounded=0;whiteSpace=wrap;html=1;arcSize=17;shadow=0;strokeWidth=2;labelBackgroundColor=none;fillColor=#f5f5f5;strokeColor=#666666;fontColor=#333333;" parent="1" vertex="1">
          <mxGeometry x="100" y="90" width="160" height="60" as="geometry" />
        </mxCell>
        <mxCell id="RWdVaoSDPrCecyL-yo3--25" value="" style="edgeStyle=orthogonalEdgeStyle;rounded=0;orthogonalLoop=1;jettySize=auto;html=1;arcSize=17;shadow=0;strokeWidth=2;labelBackgroundColor=none;strokeColor=#23445D;fontColor=default;" parent="1" source="RWdVaoSDPrCecyL-yo3--2" target="RWdVaoSDPrCecyL-yo3--3" edge="1">
          <mxGeometry relative="1" as="geometry" />
        </mxCell>
        <mxCell id="RWdVaoSDPrCecyL-yo3--2" value="&lt;font style=&quot;font-size: 16px;&quot;&gt;Read in dataset import&lt;/font&gt;" style="rounded=0;whiteSpace=wrap;html=1;arcSize=17;shadow=0;strokeWidth=2;labelBackgroundColor=none;fillColor=#182E3E;strokeColor=#FFFFFF;fontColor=#FFFFFF;" parent="1" vertex="1">
          <mxGeometry x="100" y="190" width="160" height="40" as="geometry" />
        </mxCell>
        <mxCell id="RWdVaoSDPrCecyL-yo3--20" style="edgeStyle=orthogonalEdgeStyle;rounded=0;orthogonalLoop=1;jettySize=auto;html=1;entryX=0;entryY=0.5;entryDx=0;entryDy=0;arcSize=17;shadow=0;strokeWidth=2;labelBackgroundColor=none;strokeColor=#23445D;fontColor=default;" parent="1" source="RWdVaoSDPrCecyL-yo3--3" target="RWdVaoSDPrCecyL-yo3--19" edge="1">
          <mxGeometry relative="1" as="geometry" />
        </mxCell>
        <mxCell id="RWdVaoSDPrCecyL-yo3--23" style="edgeStyle=orthogonalEdgeStyle;rounded=0;orthogonalLoop=1;jettySize=auto;html=1;exitX=1;exitY=0.5;exitDx=0;exitDy=0;entryX=0;entryY=0.75;entryDx=0;entryDy=0;arcSize=17;shadow=0;strokeWidth=2;labelBackgroundColor=none;strokeColor=#23445D;fontColor=default;" parent="1" source="RWdVaoSDPrCecyL-yo3--3" target="RWdVaoSDPrCecyL-yo3--22" edge="1">
          <mxGeometry relative="1" as="geometry" />
        </mxCell>
        <mxCell id="RWdVaoSDPrCecyL-yo3--26" value="" style="edgeStyle=orthogonalEdgeStyle;rounded=0;orthogonalLoop=1;jettySize=auto;html=1;arcSize=17;shadow=0;strokeWidth=2;labelBackgroundColor=none;strokeColor=#23445D;fontColor=default;" parent="1" source="RWdVaoSDPrCecyL-yo3--3" target="RWdVaoSDPrCecyL-yo3--4" edge="1">
          <mxGeometry relative="1" as="geometry" />
        </mxCell>
        <mxCell id="RWdVaoSDPrCecyL-yo3--3" value="&lt;font style=&quot;font-size: 16px;&quot;&gt;Exploratory data analysis&lt;/font&gt;" style="rounded=0;whiteSpace=wrap;html=1;arcSize=17;shadow=0;strokeWidth=2;labelBackgroundColor=none;fillColor=#182E3E;strokeColor=#FFFFFF;fontColor=#FFFFFF;" parent="1" vertex="1">
          <mxGeometry x="100" y="290" width="160" height="40" as="geometry" />
        </mxCell>
        <mxCell id="RWdVaoSDPrCecyL-yo3--15" style="edgeStyle=orthogonalEdgeStyle;rounded=0;orthogonalLoop=1;jettySize=auto;html=1;entryX=0;entryY=0.5;entryDx=0;entryDy=0;arcSize=17;shadow=0;strokeWidth=2;labelBackgroundColor=none;strokeColor=#23445D;fontColor=default;" parent="1" source="RWdVaoSDPrCecyL-yo3--4" target="RWdVaoSDPrCecyL-yo3--13" edge="1">
          <mxGeometry relative="1" as="geometry" />
        </mxCell>
        <mxCell id="RWdVaoSDPrCecyL-yo3--17" style="edgeStyle=orthogonalEdgeStyle;rounded=0;orthogonalLoop=1;jettySize=auto;html=1;exitX=1;exitY=0.5;exitDx=0;exitDy=0;entryX=0;entryY=0.5;entryDx=0;entryDy=0;arcSize=17;shadow=0;strokeWidth=2;labelBackgroundColor=none;strokeColor=#23445D;fontColor=default;" parent="1" source="RWdVaoSDPrCecyL-yo3--4" target="RWdVaoSDPrCecyL-yo3--16" edge="1">
          <mxGeometry relative="1" as="geometry" />
        </mxCell>
        <mxCell id="RWdVaoSDPrCecyL-yo3--27" value="" style="edgeStyle=orthogonalEdgeStyle;rounded=0;orthogonalLoop=1;jettySize=auto;html=1;arcSize=17;shadow=0;strokeWidth=2;labelBackgroundColor=none;strokeColor=#23445D;fontColor=default;" parent="1" source="RWdVaoSDPrCecyL-yo3--4" target="RWdVaoSDPrCecyL-yo3--5" edge="1">
          <mxGeometry relative="1" as="geometry" />
        </mxCell>
        <mxCell id="RWdVaoSDPrCecyL-yo3--4" value="&lt;font style=&quot;font-size: 16px;&quot;&gt;Data preprocessing&lt;/font&gt;" style="rounded=0;whiteSpace=wrap;html=1;arcSize=17;shadow=0;strokeWidth=2;labelBackgroundColor=none;fillColor=#182E3E;strokeColor=#FFFFFF;fontColor=#FFFFFF;" parent="1" vertex="1">
          <mxGeometry x="100" y="390" width="160" height="40" as="geometry" />
        </mxCell>
        <mxCell id="RWdVaoSDPrCecyL-yo3--28" value="" style="edgeStyle=orthogonalEdgeStyle;rounded=0;orthogonalLoop=1;jettySize=auto;html=1;arcSize=17;shadow=0;strokeWidth=2;labelBackgroundColor=none;strokeColor=#23445D;fontColor=default;" parent="1" source="RWdVaoSDPrCecyL-yo3--5" target="RWdVaoSDPrCecyL-yo3--6" edge="1">
          <mxGeometry relative="1" as="geometry" />
        </mxCell>
        <mxCell id="RWdVaoSDPrCecyL-yo3--5" value="&lt;font style=&quot;font-size: 16px;&quot;&gt;Split data into (train, validation, test)&lt;/font&gt;" style="rounded=0;whiteSpace=wrap;html=1;arcSize=17;shadow=0;strokeWidth=2;labelBackgroundColor=none;fillColor=#182E3E;strokeColor=#FFFFFF;fontColor=#FFFFFF;" parent="1" vertex="1">
          <mxGeometry x="100" y="500" width="160" height="40" as="geometry" />
        </mxCell>
        <mxCell id="RWdVaoSDPrCecyL-yo3--29" value="" style="edgeStyle=orthogonalEdgeStyle;rounded=0;orthogonalLoop=1;jettySize=auto;html=1;arcSize=17;shadow=0;strokeWidth=2;labelBackgroundColor=none;strokeColor=#23445D;fontColor=default;" parent="1" source="RWdVaoSDPrCecyL-yo3--6" target="RWdVaoSDPrCecyL-yo3--9" edge="1">
          <mxGeometry relative="1" as="geometry" />
        </mxCell>
        <mxCell id="RWdVaoSDPrCecyL-yo3--6" value="&lt;font style=&quot;font-size: 16px;&quot;&gt;Build function (baseline neural network model and metrics)&lt;/font&gt;" style="rounded=0;whiteSpace=wrap;html=1;arcSize=17;shadow=0;strokeWidth=2;labelBackgroundColor=none;fillColor=#182E3E;strokeColor=#FFFFFF;fontColor=#FFFFFF;" parent="1" vertex="1">
          <mxGeometry x="100" y="600" width="160" height="90" as="geometry" />
        </mxCell>
        <mxCell id="RWdVaoSDPrCecyL-yo3--30" value="" style="edgeStyle=orthogonalEdgeStyle;rounded=0;orthogonalLoop=1;jettySize=auto;html=1;arcSize=17;shadow=0;strokeWidth=2;labelBackgroundColor=none;strokeColor=#23445D;fontColor=default;" parent="1" source="RWdVaoSDPrCecyL-yo3--9" target="RWdVaoSDPrCecyL-yo3--10" edge="1">
          <mxGeometry relative="1" as="geometry" />
        </mxCell>
        <mxCell id="RWdVaoSDPrCecyL-yo3--9" value="&lt;font style=&quot;font-size: 16px;&quot;&gt;Set initial bias &amp;amp; calculate class weight&lt;/font&gt;" style="rounded=0;whiteSpace=wrap;html=1;arcSize=17;shadow=0;strokeWidth=2;labelBackgroundColor=none;fillColor=#182E3E;strokeColor=#FFFFFF;fontColor=#FFFFFF;" parent="1" vertex="1">
          <mxGeometry x="100" y="750" width="160" height="40" as="geometry" />
        </mxCell>
        <mxCell id="RWdVaoSDPrCecyL-yo3--12" value="" style="edgeStyle=orthogonalEdgeStyle;rounded=0;orthogonalLoop=1;jettySize=auto;html=1;arcSize=17;shadow=0;strokeWidth=2;labelBackgroundColor=none;strokeColor=#23445D;fontColor=default;" parent="1" source="RWdVaoSDPrCecyL-yo3--10" target="RWdVaoSDPrCecyL-yo3--11" edge="1">
          <mxGeometry relative="1" as="geometry" />
        </mxCell>
        <mxCell id="RWdVaoSDPrCecyL-yo3--10" value="&lt;font style=&quot;font-size: 16px;&quot;&gt;Train model with class weight&lt;/font&gt;" style="rounded=0;whiteSpace=wrap;html=1;arcSize=17;shadow=0;strokeWidth=2;labelBackgroundColor=none;fillColor=#182E3E;strokeColor=#FFFFFF;fontColor=#FFFFFF;" parent="1" vertex="1">
          <mxGeometry x="100" y="850" width="160" height="40" as="geometry" />
        </mxCell>
        <mxCell id="RWdVaoSDPrCecyL-yo3--18" style="edgeStyle=orthogonalEdgeStyle;rounded=0;orthogonalLoop=1;jettySize=auto;html=1;arcSize=17;shadow=0;strokeWidth=2;entryX=0.563;entryY=1;entryDx=0;entryDy=0;entryPerimeter=0;labelBackgroundColor=none;strokeColor=#23445D;fontColor=default;" parent="1" source="RWdVaoSDPrCecyL-yo3--11" target="RWdVaoSDPrCecyL-yo3--16" edge="1">
          <mxGeometry relative="1" as="geometry">
            <mxPoint x="440" y="480" as="targetPoint" />
            <Array as="points">
              <mxPoint x="430" y="500" />
            </Array>
          </mxGeometry>
        </mxCell>
        <mxCell id="RWdVaoSDPrCecyL-yo3--11" value="&lt;font style=&quot;font-size: 16px;&quot;&gt;Make prediction &amp;amp; plot metrics results&lt;/font&gt;" style="rounded=0;whiteSpace=wrap;html=1;arcSize=17;shadow=0;strokeWidth=2;labelBackgroundColor=none;fillColor=#182E3E;strokeColor=#FFFFFF;fontColor=#FFFFFF;" parent="1" vertex="1">
          <mxGeometry x="360" y="850" width="160" height="40" as="geometry" />
        </mxCell>
        <mxCell id="RWdVaoSDPrCecyL-yo3--13" value="&lt;font style=&quot;font-size: 16px;&quot;&gt;Fill in missing values&lt;/font&gt;" style="rounded=0;whiteSpace=wrap;html=1;arcSize=17;shadow=0;strokeWidth=2;labelBackgroundColor=none;fillColor=#182E3E;strokeColor=#FFFFFF;fontColor=#FFFFFF;" parent="1" vertex="1">
          <mxGeometry x="350" y="370" width="160" height="40" as="geometry" />
        </mxCell>
        <mxCell id="RWdVaoSDPrCecyL-yo3--41" style="edgeStyle=orthogonalEdgeStyle;rounded=0;orthogonalLoop=1;jettySize=auto;html=1;entryX=0;entryY=0.5;entryDx=0;entryDy=0;arcSize=17;shadow=0;strokeWidth=2;labelBackgroundColor=none;strokeColor=#23445D;fontColor=default;" parent="1" source="RWdVaoSDPrCecyL-yo3--16" target="RWdVaoSDPrCecyL-yo3--32" edge="1">
          <mxGeometry relative="1" as="geometry" />
        </mxCell>
        <mxCell id="RWdVaoSDPrCecyL-yo3--16" value="&lt;font style=&quot;font-size: 16px;&quot;&gt;Oversample minority class&lt;/font&gt;" style="rounded=0;whiteSpace=wrap;html=1;arcSize=17;shadow=0;strokeWidth=2;labelBackgroundColor=none;fillColor=#182E3E;strokeColor=#FFFFFF;fontColor=#FFFFFF;" parent="1" vertex="1">
          <mxGeometry x="350" y="460" width="160" height="40" as="geometry" />
        </mxCell>
        <mxCell id="RWdVaoSDPrCecyL-yo3--19" value="&lt;span style=&quot;font-size: 16px;&quot;&gt;Check data information and missing values&amp;nbsp;&lt;br&gt;&lt;/span&gt;" style="rounded=0;whiteSpace=wrap;html=1;arcSize=17;shadow=0;strokeWidth=2;labelBackgroundColor=none;fillColor=#182E3E;strokeColor=#FFFFFF;fontColor=#FFFFFF;" parent="1" vertex="1">
          <mxGeometry x="350" y="220" width="160" height="60" as="geometry" />
        </mxCell>
        <mxCell id="RWdVaoSDPrCecyL-yo3--22" value="&lt;span style=&quot;font-size: 16px;&quot;&gt;Reformat and sort dates&lt;br&gt;&lt;/span&gt;" style="rounded=0;whiteSpace=wrap;html=1;arcSize=17;shadow=0;strokeWidth=2;labelBackgroundColor=none;fillColor=#182E3E;strokeColor=#FFFFFF;fontColor=#FFFFFF;" parent="1" vertex="1">
          <mxGeometry x="350" y="320" width="160" height="40" as="geometry" />
        </mxCell>
        <mxCell id="RWdVaoSDPrCecyL-yo3--37" value="" style="edgeStyle=orthogonalEdgeStyle;rounded=0;orthogonalLoop=1;jettySize=auto;html=1;arcSize=17;shadow=0;strokeWidth=2;labelBackgroundColor=none;strokeColor=#23445D;fontColor=default;" parent="1" source="RWdVaoSDPrCecyL-yo3--32" target="RWdVaoSDPrCecyL-yo3--33" edge="1">
          <mxGeometry relative="1" as="geometry" />
        </mxCell>
        <mxCell id="RWdVaoSDPrCecyL-yo3--32" value="&lt;span style=&quot;font-size: 16px;&quot;&gt;Train model with 100 epochs&lt;/span&gt;" style="rounded=0;whiteSpace=wrap;html=1;arcSize=17;shadow=0;strokeWidth=2;labelBackgroundColor=none;fillColor=#182E3E;strokeColor=#FFFFFF;fontColor=#FFFFFF;" parent="1" vertex="1">
          <mxGeometry x="650" y="100" width="180" height="40" as="geometry" />
        </mxCell>
        <mxCell id="RWdVaoSDPrCecyL-yo3--38" value="" style="edgeStyle=orthogonalEdgeStyle;rounded=0;orthogonalLoop=1;jettySize=auto;html=1;arcSize=17;shadow=0;strokeWidth=2;labelBackgroundColor=none;strokeColor=#23445D;fontColor=default;" parent="1" source="RWdVaoSDPrCecyL-yo3--33" target="RWdVaoSDPrCecyL-yo3--34" edge="1">
          <mxGeometry relative="1" as="geometry" />
        </mxCell>
        <mxCell id="RWdVaoSDPrCecyL-yo3--33" value="&lt;span style=&quot;font-size: 16px;&quot;&gt;Make predictions &amp;amp; plot metric results&lt;/span&gt;" style="rounded=0;whiteSpace=wrap;html=1;arcSize=17;shadow=0;strokeWidth=2;labelBackgroundColor=none;fillColor=#182E3E;strokeColor=#FFFFFF;fontColor=#FFFFFF;" parent="1" vertex="1">
          <mxGeometry x="660" y="200" width="160" height="40" as="geometry" />
        </mxCell>
        <mxCell id="RWdVaoSDPrCecyL-yo3--39" value="" style="edgeStyle=orthogonalEdgeStyle;rounded=0;orthogonalLoop=1;jettySize=auto;html=1;arcSize=17;shadow=0;strokeWidth=2;labelBackgroundColor=none;strokeColor=#23445D;fontColor=default;" parent="1" source="RWdVaoSDPrCecyL-yo3--34" target="RWdVaoSDPrCecyL-yo3--35" edge="1">
          <mxGeometry relative="1" as="geometry" />
        </mxCell>
        <mxCell id="RWdVaoSDPrCecyL-yo3--34" value="&lt;span style=&quot;font-size: 16px;&quot;&gt;Retrain model with 1000 epochs&lt;/span&gt;" style="rounded=0;whiteSpace=wrap;html=1;arcSize=17;shadow=0;strokeWidth=2;labelBackgroundColor=none;fillColor=#182E3E;strokeColor=#FFFFFF;fontColor=#FFFFFF;" parent="1" vertex="1">
          <mxGeometry x="660" y="300" width="160" height="40" as="geometry" />
        </mxCell>
        <mxCell id="RWdVaoSDPrCecyL-yo3--40" value="" style="edgeStyle=orthogonalEdgeStyle;rounded=0;orthogonalLoop=1;jettySize=auto;html=1;arcSize=17;shadow=0;strokeWidth=2;labelBackgroundColor=none;strokeColor=#23445D;fontColor=default;" parent="1" source="RWdVaoSDPrCecyL-yo3--35" target="RWdVaoSDPrCecyL-yo3--36" edge="1">
          <mxGeometry relative="1" as="geometry" />
        </mxCell>
        <mxCell id="RWdVaoSDPrCecyL-yo3--35" value="&lt;span style=&quot;font-size: 16px;&quot;&gt;Make prediction &amp;amp; plot metrics results&lt;/span&gt;" style="rounded=0;whiteSpace=wrap;html=1;arcSize=17;shadow=0;strokeWidth=2;labelBackgroundColor=none;fillColor=#182E3E;strokeColor=#FFFFFF;fontColor=#FFFFFF;" parent="1" vertex="1">
          <mxGeometry x="660" y="430" width="160" height="40" as="geometry" />
        </mxCell>
        <mxCell id="RWdVaoSDPrCecyL-yo3--36" value="&lt;span style=&quot;font-size: 16px;&quot;&gt;Save model for deployment&lt;/span&gt;" style="rounded=0;whiteSpace=wrap;html=1;arcSize=17;shadow=0;strokeWidth=2;labelBackgroundColor=none;fillColor=#182E3E;strokeColor=#FFFFFF;fontColor=#FFFFFF;" parent="1" vertex="1">
          <mxGeometry x="660" y="530" width="160" height="40" as="geometry" />
        </mxCell>
        <mxCell id="iUaY-e-PHjx25CnOWg4J-1" value="" style="shape=image;verticalLabelPosition=bottom;labelBackgroundColor=default;verticalAlign=top;aspect=fixed;imageAspect=0;image=data:image/svg+xml,PHN2ZyB4bWxucz0iaHR0cDovL3d3dy53My5vcmcvMjAwMC9zdmciIHZpZXdCb3g9IjAgMCA1MTIgNTEyIiBjbGFzcz0iaW9uaWNvbiI+PHJlY3Qgc3Ryb2tlLXdpZHRoPSIzMiIgc3Ryb2tlLWxpbmVqb2luPSJyb3VuZCIgc3Ryb2tlPSJjdXJyZW50Q29sb3IiIGZpbGw9Im5vbmUiIHJ5PSIxNiIgcng9IjE2IiBoZWlnaHQ9IjM2OCIgd2lkdGg9IjY0IiB5PSI5NiIgeD0iMzIiLz48cGF0aCBkPSJNMTEyIDIyNGgxMjhNMTEyIDQwMGgxMjgiIHN0cm9rZS13aWR0aD0iMzIiIHN0cm9rZS1saW5lam9pbj0icm91bmQiIHN0cm9rZS1saW5lY2FwPSJyb3VuZCIgc3Ryb2tlPSJjdXJyZW50Q29sb3IiIGZpbGw9Im5vbmUiLz48cmVjdCBzdHJva2Utd2lkdGg9IjMyIiBzdHJva2UtbGluZWpvaW49InJvdW5kIiBzdHJva2U9ImN1cnJlbnRDb2xvciIgZmlsbD0ibm9uZSIgcnk9IjE2IiByeD0iMTYiIGhlaWdodD0iMzA0IiB3aWR0aD0iMTI4IiB5PSIxNjAiIHg9IjExMiIvPjxyZWN0IHN0cm9rZS13aWR0aD0iMzIiIHN0cm9rZS1saW5lam9pbj0icm91bmQiIHN0cm9rZT0iY3VycmVudENvbG9yIiBmaWxsPSJub25lIiByeT0iMTYiIHJ4PSIxNiIgaGVpZ2h0PSI0MTYiIHdpZHRoPSI5NiIgeT0iNDgiIHg9IjI1NiIvPjxwYXRoIHN0cm9rZS13aWR0aD0iMzIiIHN0cm9rZS1saW5lam9pbj0icm91bmQiIHN0cm9rZT0iY3VycmVudENvbG9yIiBmaWxsPSJub25lIiBkPSJNNDIyLjQ2IDk2LjExbC00MC40IDQuMjVjLTExLjEyIDEuMTctMTkuMTggMTEuNTctMTcuOTMgMjMuMWwzNC45MiAzMjEuNTljMS4yNiAxMS41MyAxMS4zNyAyMCAyMi40OSAxOC44NGw0MC40LTQuMjVjMTEuMTItMS4xNyAxOS4xOC0xMS41NyAxNy45My0yMy4xTDQ0NSAxMTVjLTEuMzEtMTEuNTgtMTEuNDItMjAuMDYtMjIuNTQtMTguODl6Ii8+PC9zdmc+;fillColor=#FFFF99;direction=south;rotation=-90;strokeColor=#FFFFFF;fontColor=#FFFFFF;" vertex="1" parent="1">
          <mxGeometry x="165" y="100" width="30" height="30" as="geometry" />
        </mxCell>
        <mxCell id="iUaY-e-PHjx25CnOWg4J-2" value="" style="shape=image;verticalLabelPosition=bottom;labelBackgroundColor=default;verticalAlign=top;aspect=fixed;imageAspect=0;image=data:image/svg+xml,PHN2ZyB4bWxucz0iaHR0cDovL3d3dy53My5vcmcvMjAwMC9zdmciIHZpZXdCb3g9IjAgMCA1MTIgNTEyIiBjbGFzcz0iaW9uaWNvbiI+PHJlY3Qgc3Ryb2tlLXdpZHRoPSIzMiIgc3Ryb2tlLWxpbmVqb2luPSJyb3VuZCIgc3Ryb2tlPSJjdXJyZW50Q29sb3IiIGZpbGw9Im5vbmUiIHJ5PSI0OCIgcng9IjQ4IiBoZWlnaHQ9IjQxNiIgd2lkdGg9IjMyMCIgeT0iNDgiIHg9Ijk2Ii8+PHBhdGggZD0iTTE3NiAxMjhoMTYwTTE3NiAyMDhoMTYwTTE3NiAyODhoODAiIHN0cm9rZS13aWR0aD0iMzIiIHN0cm9rZS1saW5lam9pbj0icm91bmQiIHN0cm9rZS1saW5lY2FwPSJyb3VuZCIgc3Ryb2tlPSJjdXJyZW50Q29sb3IiIGZpbGw9Im5vbmUiLz48L3N2Zz4=;" vertex="1" parent="1">
          <mxGeometry x="30" y="180" width="40" height="40" as="geometry" />
        </mxCell>
        <mxCell id="iUaY-e-PHjx25CnOWg4J-3" value="" style="shape=image;verticalLabelPosition=bottom;labelBackgroundColor=default;verticalAlign=top;aspect=fixed;imageAspect=0;image=data:image/svg+xml,PHN2ZyB4bWxucz0iaHR0cDovL3d3dy53My5vcmcvMjAwMC9zdmciIHZpZXdCb3g9IjAgMCA1MTIgNTEyIiBjbGFzcz0iaW9uaWNvbiI+PHBhdGggZD0iTTM0NCAyODBsODgtODhNMjMyIDIxNmw2NCA2NE04MCAzMjBsMTA0LTEwNCIgc3Ryb2tlLXdpZHRoPSIzMiIgc3Ryb2tlLWxpbmVqb2luPSJyb3VuZCIgc3Ryb2tlLWxpbmVjYXA9InJvdW5kIiBzdHJva2U9ImN1cnJlbnRDb2xvciIgZmlsbD0ibm9uZSIvPjxjaXJjbGUgc3Ryb2tlLXdpZHRoPSIzMiIgc3Ryb2tlLWxpbmVqb2luPSJyb3VuZCIgc3Ryb2tlLWxpbmVjYXA9InJvdW5kIiBzdHJva2U9ImN1cnJlbnRDb2xvciIgZmlsbD0ibm9uZSIgcj0iMjQiIGN5PSIxNjgiIGN4PSI0NTYiLz48Y2lyY2xlIHN0cm9rZS13aWR0aD0iMzIiIHN0cm9rZS1saW5lam9pbj0icm91bmQiIHN0cm9rZS1saW5lY2FwPSJyb3VuZCIgc3Ryb2tlPSJjdXJyZW50Q29sb3IiIGZpbGw9Im5vbmUiIHI9IjI0IiBjeT0iMzA0IiBjeD0iMzIwIi8+PGNpcmNsZSBzdHJva2Utd2lkdGg9IjMyIiBzdHJva2UtbGluZWpvaW49InJvdW5kIiBzdHJva2UtbGluZWNhcD0icm91bmQiIHN0cm9rZT0iY3VycmVudENvbG9yIiBmaWxsPSJub25lIiByPSIyNCIgY3k9IjE5MiIgY3g9IjIwOCIvPjxjaXJjbGUgc3Ryb2tlLXdpZHRoPSIzMiIgc3Ryb2tlLWxpbmVqb2luPSJyb3VuZCIgc3Ryb2tlLWxpbmVjYXA9InJvdW5kIiBzdHJva2U9ImN1cnJlbnRDb2xvciIgZmlsbD0ibm9uZSIgcj0iMjQiIGN5PSIzNDQiIGN4PSI1NiIvPjwvc3ZnPg==;" vertex="1" parent="1">
          <mxGeometry y="240" width="80" height="80" as="geometry" />
        </mxCell>
      </root>
    </mxGraphModel>
  </diagram>
</mxfile>
